<svg width="500" height="125" viewBox="0 0 500 125" fill="none" xmlns="http://www.w3.org/2000/svg">
<path d="M18.3148 80.84C18.1948 81.44 17.8348 81.96 17.2348 82.4C16.6748 82.8 15.8748 83 14.8348 83C13.9548 83 13.2548 82.76 12.7348 82.28C12.2548 81.8 11.9948 81.3 11.9548 80.78C12.1948 79.1 12.3148 76.58 12.3148 73.22C12.3148 71.22 12.1948 68.14 11.9548 63.98C11.6748 60.06 11.5348 56.58 11.5348 53.54C11.5348 51.9 11.6148 50.22 11.7748 48.5C11.7748 47.94 12.0948 47.34 12.7348 46.7C13.4148 46.06 14.3348 45.66 15.4948 45.5C19.2948 45.1 23.9548 44.9 29.4748 44.9H31.3948C32.8348 44.9 34.2348 45.16 35.5948 45.68C36.9948 46.2 37.6948 47.1 37.6948 48.38C37.6948 49.22 37.4948 49.88 37.0948 50.36C36.6948 50.84 35.9548 51.08 34.8748 51.08C34.3548 51.08 33.7548 51.04 33.0748 50.96C32.3948 50.88 31.9148 50.82 31.6348 50.78C30.1148 50.54 28.9348 50.42 28.0948 50.42C23.4548 50.42 19.9548 50.74 17.5948 51.38C17.5948 52.7 17.6348 54.84 17.7148 57.8L17.7748 61.64C19.8548 61.64 21.7148 61.56 23.3548 61.4C24.9948 61.2 25.9348 61.08 26.1748 61.04C28.2548 60.8 29.6348 60.68 30.3148 60.68C31.2748 60.68 32.0748 60.9 32.7148 61.34C33.3948 61.74 33.7348 62.38 33.7348 63.26C33.7348 65.26 32.3348 66.26 29.5348 66.26C28.8548 66.26 28.2548 66.28 27.7348 66.32C27.2148 66.36 26.7748 66.4 26.4148 66.44C24.9748 66.6 23.8348 66.68 22.9948 66.68C21.1548 66.68 19.5948 66.74 18.3148 66.86C18.3148 68.34 18.3748 69.9 18.4948 71.54C18.4948 72.06 18.5148 72.86 18.5548 73.94C18.6348 75.02 18.6748 76 18.6748 76.88C18.6748 77.64 18.6548 78.34 18.6148 78.98C18.5748 79.62 18.4748 80.24 18.3148 80.84ZM39.4892 62.78C39.1692 62.78 38.8692 62.66 38.5892 62.42C38.3492 62.14 38.2292 61.82 38.2292 61.46C38.2292 60.54 38.6292 59.68 39.4292 58.88C39.6692 58.76 40.1492 58.56 40.8692 58.28C41.5892 58 42.2292 57.86 42.7892 57.86C44.3092 57.86 45.5492 58.28 46.5092 59.12C47.4692 59.92 47.9492 61.08 47.9492 62.6C47.9492 63.04 47.8692 63.98 47.7092 65.42C47.5492 67.1 47.4692 68.4 47.4692 69.32C47.4692 72.12 47.8492 74.38 48.6092 76.1C48.8892 76.66 49.3292 77.1 49.9292 77.42C50.5292 77.74 51.0692 77.9 51.5492 77.9C52.7092 77.9 53.6492 77.7 54.3692 77.3C55.0892 76.9 55.8692 76.26 56.7092 75.38C57.5492 74.5 58.0892 73.5 58.3292 72.38C58.6092 71.26 58.8092 69.72 58.9292 67.76C59.0092 66.48 59.0892 65.54 59.1692 64.94C59.3692 63.02 59.4692 61.38 59.4692 60.02C59.4692 59.14 59.7092 58.42 60.1892 57.86C60.6692 57.26 61.3292 56.96 62.1692 56.96C62.6492 56.96 63.1892 57.12 63.7892 57.44C64.4292 57.72 64.8492 58.06 65.0492 58.46C65.2892 58.86 65.4092 59.52 65.4092 60.44C65.4092 60.92 65.3492 61.38 65.2292 61.82C64.9492 62.82 64.8092 64.02 64.8092 65.42L64.8692 68.54C64.8692 71.38 65.0692 73.48 65.4692 74.84C65.6692 75.48 65.9492 76.14 66.3092 76.82C66.6692 77.46 67.0092 78 67.3292 78.44C68.1292 79.32 68.6492 79.94 68.8892 80.3C69.1292 80.62 69.2492 80.94 69.2492 81.26C69.2492 81.74 69.0092 82.2 68.5292 82.64C68.0892 83.04 67.6092 83.24 67.0892 83.24C65.6092 83.24 64.3292 82.74 63.2492 81.74C62.1692 80.74 61.3692 79.44 60.8492 77.84C59.4892 79.4 58.2292 80.66 57.0692 81.62C56.2692 82.18 55.2892 82.6 54.1292 82.88C52.9692 83.12 51.8092 83.24 50.6492 83.24C49.0892 83.24 47.5092 82.6 45.9092 81.32C44.3092 80.04 43.2292 78.56 42.6692 76.88C42.6292 76.8 42.5092 76.48 42.3092 75.92C42.1492 75.36 42.0692 74.52 42.0692 73.4C42.0692 71.92 42.1492 70.06 42.3092 67.82C42.4292 66.38 42.4892 65.06 42.4892 63.86C42.4892 63.5 42.3492 63.2 42.0692 62.96C41.8292 62.72 41.5492 62.6 41.2292 62.6C40.9892 62.6 40.7092 62.64 40.3892 62.72C40.1092 62.76 39.8092 62.78 39.4892 62.78ZM82.6733 80.6C82.6733 81.28 82.4133 81.88 81.8933 82.4C81.3733 82.92 80.7333 83.18 79.9733 83.18C78.7733 83.18 77.8933 82.96 77.3333 82.52C76.7733 82.04 76.4933 81.18 76.4933 79.94C76.4933 78.46 76.4533 76.52 76.3733 74.12C76.2933 72.12 76.2533 70.44 76.2533 69.08C76.2533 68.44 76.2933 67.6 76.3733 66.56C76.4533 65.6 76.4933 64.88 76.4933 64.4C76.3733 63.64 76.0733 63.02 75.5933 62.54C75.1133 62.02 74.4933 61.76 73.7333 61.76C73.3733 61.76 73.0733 61.6 72.8333 61.28C72.5933 60.92 72.4733 60.56 72.4733 60.2C72.4733 59.28 72.8333 58.58 73.5533 58.1C74.3133 57.62 75.2133 57.38 76.2533 57.38C78.4133 57.38 79.9133 58.66 80.7533 61.22C81.7933 60.02 82.9733 59.06 84.2933 58.34C85.6533 57.58 86.9533 57.2 88.1933 57.2C89.6733 57.2 91.0133 57.6 92.2133 58.4C93.4533 59.2 94.0733 60.28 94.0733 61.64C94.0733 62.4 93.7333 63.18 93.0533 63.98C92.4133 64.78 91.7533 65.18 91.0733 65.18C90.7133 65.18 90.3933 65.1 90.1133 64.94C89.8733 64.74 89.5733 64.46 89.2133 64.1C88.8133 63.7 88.4733 63.42 88.1933 63.26C87.9133 63.06 87.5933 62.96 87.2333 62.96C86.5933 62.96 85.9933 63.06 85.4333 63.26C84.8733 63.46 84.4933 63.7 84.2933 63.98C83.6533 64.98 83.1733 65.88 82.8533 66.68C82.5733 67.48 82.4333 68.34 82.4333 69.26C82.4333 69.94 82.4133 70.48 82.3733 70.88L82.3133 74.3C82.3133 74.82 82.3333 75.4 82.3733 76.04C82.4133 76.68 82.4533 77.16 82.4933 77.48C82.6133 78.56 82.6733 79.6 82.6733 80.6ZM121.701 77.54C122.381 78.06 122.841 78.56 123.081 79.04C123.321 79.52 123.441 80.12 123.441 80.84C123.441 81.44 123.121 82 122.481 82.52C121.881 83 121.321 83.24 120.801 83.24C120.361 83.24 119.841 83.1 119.241 82.82C118.641 82.54 118.181 82.22 117.861 81.86C117.421 81.5 116.561 80.62 115.281 79.22C114.041 77.82 113.121 76.72 112.521 75.92C111.081 74.12 110.361 73.22 110.361 73.22L108.261 70.64L104.421 73.76L104.661 80.3C104.661 81.38 104.381 82.14 103.821 82.58C103.301 83.02 102.781 83.24 102.261 83.24C101.501 83.24 100.821 83.1 100.221 82.82C99.6609 82.54 99.3209 82.22 99.2009 81.86C98.7609 80.26 98.5409 78.16 98.5409 75.56C98.5409 70.68 98.6209 66.78 98.7809 63.86C98.9409 60.22 99.0209 56.78 99.0209 53.54C99.0209 52.54 98.9009 51.16 98.6609 49.4C98.6209 49.04 98.5609 48.46 98.4809 47.66C98.4009 46.86 98.3609 46.14 98.3609 45.5C98.3609 44.58 98.6609 43.86 99.2609 43.34C99.9009 42.82 100.721 42.56 101.721 42.56C102.521 42.56 103.161 42.82 103.641 43.34C104.161 43.82 104.421 44.5 104.421 45.38C104.421 46.7 104.461 48.44 104.541 50.6C104.621 52.76 104.661 54.34 104.661 55.34C104.661 56.58 104.621 58.24 104.541 60.32C104.461 61.44 104.421 62.28 104.421 62.84C104.421 64.6 104.441 66.06 104.481 67.22C105.921 65.74 107.841 64.02 110.241 62.06C112.681 60.06 114.581 58.66 115.941 57.86C117.461 56.94 118.381 56.48 118.701 56.48C119.541 56.48 120.261 56.66 120.861 57.02C121.461 57.38 121.761 57.92 121.761 58.64C121.761 59.36 121.661 59.92 121.461 60.32C121.261 60.68 120.901 61.06 120.381 61.46L112.641 67.1C114.361 69.22 116.141 71.38 117.981 73.58C119.821 75.74 121.061 77.06 121.701 77.54ZM151.027 83.24C149.667 83.24 148.627 83.04 147.907 82.64C147.187 82.2 146.407 81.4 145.567 80.24C144.527 81.16 142.967 81.9 140.887 82.46C138.847 83.02 137.087 83.3 135.607 83.3C133.167 83.3 131.187 82.64 129.667 81.32C128.187 79.96 127.447 77.98 127.447 75.38C127.447 74.26 127.747 73.24 128.347 72.32C128.987 71.36 129.807 70.52 130.807 69.8C131.927 69.04 133.247 68.44 134.767 68C136.327 67.56 137.747 67.34 139.027 67.34C141.187 67.34 143.107 67.54 144.787 67.94V67.88C144.787 65.72 144.247 64.24 143.167 63.44C142.127 62.6 140.447 62.18 138.127 62.18C136.647 62.18 135.367 62.84 134.287 64.16C133.887 64.68 133.047 64.94 131.767 64.94C131.127 64.94 130.647 64.68 130.327 64.16C130.047 63.6 129.907 63.04 129.907 62.48C129.907 61.32 130.387 60.32 131.347 59.48C132.347 58.64 133.547 58.02 134.947 57.62C136.347 57.18 137.647 56.96 138.847 56.96C140.007 56.96 141.387 57.2 142.987 57.68C144.587 58.16 145.887 58.8 146.887 59.6C148.087 60.64 149.007 61.86 149.647 63.26C150.327 64.62 150.667 66.12 150.667 67.76C150.667 68.28 150.627 69.06 150.547 70.1C150.467 71.3 150.427 72.28 150.427 73.04C150.427 73.4 150.387 73.86 150.307 74.42C150.227 75.14 150.187 75.74 150.187 76.22C150.187 76.74 150.347 77.24 150.667 77.72C150.987 78.2 151.427 78.6 151.987 78.92C152.507 79.2 152.847 79.5 153.007 79.82C153.167 80.14 153.247 80.5 153.247 80.9C153.247 81.3 152.987 81.8 152.467 82.4C151.987 82.96 151.507 83.24 151.027 83.24ZM139.027 71.78C137.467 71.78 136.087 72.08 134.887 72.68C133.687 73.28 133.087 74.34 133.087 75.86C133.087 76.62 133.347 77.26 133.867 77.78C134.427 78.3 135.027 78.56 135.667 78.56C137.387 78.56 138.827 78.38 139.987 78.02C141.147 77.66 142.547 77 144.187 76.04C144.387 75.4 144.507 74.5 144.547 73.34C144.547 72.9 144.567 72.56 144.607 72.32C142.447 71.96 140.587 71.78 139.027 71.78ZM185.118 78.38C185.318 78.46 185.638 78.56 186.078 78.68C186.518 78.8 186.838 78.92 187.038 79.04C187.238 79.16 187.338 79.34 187.338 79.58C187.378 80.54 187.018 81.34 186.258 81.98C185.538 82.58 184.678 82.88 183.678 82.88C182.118 82.88 180.898 82.46 180.018 81.62C179.138 80.78 178.498 79.5 178.098 77.78C177.938 77.1 177.858 76.16 177.858 74.96C177.858 74.28 177.898 73.18 177.978 71.66C178.058 70.06 178.098 68.78 178.098 67.82C178.098 66.1 177.918 64.8 177.558 63.92C177.198 63 176.338 62.54 174.978 62.54C173.578 62.54 172.318 63.1 171.198 64.22C170.118 65.34 169.198 67.02 168.438 69.26C167.398 72.38 166.818 76.52 166.698 81.68C166.698 81.96 166.398 82.3 165.798 82.7C165.238 83.06 164.558 83.24 163.758 83.24C162.278 83.24 161.358 82.46 160.998 80.9L160.938 79.88C160.938 79.52 160.978 79.1 161.058 78.62C161.538 75.82 161.778 73.38 161.778 71.3C161.778 70.38 161.758 69.66 161.718 69.14L161.658 66.32C161.658 65.36 161.418 64.44 160.938 63.56C160.458 62.64 159.898 62.18 159.258 62.18C159.058 62.18 158.778 62.26 158.418 62.42C158.058 62.54 157.758 62.6 157.518 62.6C157.118 62.6 156.678 62.4 156.198 62C155.758 61.6 155.538 61.18 155.538 60.74C155.538 59.9 155.818 59.22 156.378 58.7C156.978 58.22 157.558 57.84 158.118 57.56C158.718 57.28 159.398 57.14 160.158 57.14C160.798 57.14 161.318 57.2 161.718 57.32C162.118 57.44 162.658 57.7 163.338 58.1C163.738 58.3 164.198 58.86 164.718 59.78C165.238 60.7 165.638 62 165.918 63.68C166.718 62.2 168.058 60.64 169.938 59C171.338 57.72 173.358 57.08 175.998 57.08C178.398 57.08 180.298 57.96 181.698 59.72C183.098 61.44 183.798 63.82 183.798 66.86C183.798 67.46 183.758 68.44 183.678 69.8C183.558 70.88 183.498 72.02 183.498 73.22C183.498 76.02 184.038 77.74 185.118 78.38ZM193.601 50.78C193.161 50.78 192.841 50.7 192.641 50.54C192.121 50.22 191.681 49.84 191.321 49.4C191.001 48.96 190.841 48.32 190.841 47.48C190.881 46.88 191.021 46.36 191.261 45.92C191.501 45.44 191.841 45.1 192.281 44.9C193.121 44.46 194.201 44.24 195.521 44.24C196.481 44.24 197.221 44.6 197.741 45.32C198.301 46 198.581 46.84 198.581 47.84C198.581 49.04 198.221 50.44 197.501 52.04C196.821 53.6 196.141 54.82 195.461 55.7C194.941 56.3 194.361 56.82 193.721 57.26C193.081 57.7 192.521 57.92 192.041 57.92C191.081 57.92 190.481 57.78 190.241 57.5C190.041 57.18 189.941 56.64 189.941 55.88C189.941 55.56 190.361 55.06 191.201 54.38C191.881 53.78 192.301 53.36 192.461 53.12C193.061 52.32 193.501 51.54 193.781 50.78H193.601ZM220.203 69.5C220.523 69.7 221.143 70.08 222.063 70.64C223.023 71.16 223.663 71.78 223.983 72.5C224.303 73.22 224.463 74.22 224.463 75.5C224.463 76.94 224.043 78.22 223.203 79.34C222.363 80.42 221.283 81.26 219.963 81.86C219.003 82.3 217.823 82.64 216.423 82.88C215.063 83.12 213.983 83.24 213.183 83.24C212.383 83.24 211.343 83.12 210.063 82.88C208.823 82.64 207.963 82.42 207.483 82.22C206.243 81.5 205.163 80.62 204.243 79.58C203.363 78.54 202.923 77.48 202.923 76.4C202.923 75.6 203.183 74.98 203.703 74.54C204.223 74.06 204.903 73.82 205.743 73.82C206.143 73.82 206.563 73.98 207.003 74.3C207.443 74.58 207.743 74.88 207.903 75.2C208.343 76.24 209.083 77.02 210.123 77.54C211.163 78.06 212.223 78.32 213.303 78.32C214.703 78.32 216.003 78.1 217.203 77.66C218.403 77.18 219.003 76.54 219.003 75.74C219.003 75.38 218.903 75.1 218.703 74.9C218.543 74.66 218.303 74.42 217.983 74.18C217.423 73.78 216.583 73.46 215.463 73.22C214.343 72.94 213.623 72.76 213.303 72.68C211.663 72.32 210.063 71.78 208.503 71.06C206.943 70.3 205.703 69.4 204.783 68.36C203.863 67.32 203.403 65.98 203.403 64.34C203.403 63.26 203.803 62.14 204.603 60.98C205.403 59.78 206.303 58.94 207.303 58.46C208.023 58.18 209.223 57.88 210.903 57.56C212.623 57.24 213.783 57.08 214.383 57.08C215.303 57.08 216.303 57.18 217.383 57.38C218.463 57.54 219.283 57.82 219.843 58.22C220.923 58.86 221.803 59.54 222.483 60.26C223.163 60.94 223.503 61.72 223.503 62.6C223.503 63.04 223.403 63.52 223.203 64.04C223.003 64.52 222.763 64.82 222.483 64.94C221.883 65.22 221.183 65.36 220.383 65.36C220.023 65.36 219.723 65.26 219.483 65.06C219.283 64.86 219.003 64.54 218.643 64.1C218.203 63.42 217.783 63.02 217.383 62.9C216.903 62.78 216.203 62.64 215.283 62.48C214.363 62.28 213.743 62.18 213.423 62.18C212.503 62.18 211.543 62.44 210.543 62.96C209.583 63.48 209.103 64.08 209.103 64.76C209.103 65.12 209.243 65.4 209.523 65.6C209.843 65.8 210.163 65.98 210.483 66.14C210.843 66.3 211.083 66.4 211.203 66.44C212.043 66.84 212.963 67.18 213.963 67.46C215.003 67.74 215.643 67.92 215.883 68C218.043 68.52 219.483 69.02 220.203 69.5ZM241.078 48.02C241.078 46.3 242.338 45.44 244.858 45.44C245.938 45.44 247.998 45.48 251.038 45.56C254.398 45.72 256.938 45.8 258.658 45.8C260.058 45.8 261.758 45.72 263.758 45.56C265.118 45.48 265.978 45.44 266.338 45.44C268.538 45.52 270.398 45.92 271.918 46.64C272.358 46.84 272.718 47.08 272.998 47.36C273.278 47.64 273.418 48.1 273.418 48.74C273.418 49.62 273.138 50.38 272.578 51.02C272.018 51.62 271.338 51.92 270.538 51.92C269.658 51.92 268.378 51.8 266.698 51.56C265.218 51.28 263.918 51.14 262.798 51.14C261.718 51.14 260.898 51.16 260.338 51.2C260.218 52.52 260.158 55.68 260.158 60.68C260.158 66.64 260.338 72.68 260.698 78.8L260.818 80.54C260.818 82.18 259.878 83 257.998 83C256.518 83 255.518 82.66 254.998 81.98C254.478 81.26 254.218 80.18 254.218 78.74C254.218 75.9 254.138 72.36 253.978 68.12C253.818 64.6 253.738 62.1 253.738 60.62C253.738 59.62 253.858 56.56 254.098 51.44L247.078 51.5C244.838 51.5 243.278 51.3 242.398 50.9C241.518 50.46 241.078 49.5 241.078 48.02ZM276.751 69.44C276.751 68 277.011 66.66 277.531 65.42C278.051 64.14 278.811 62.82 279.811 61.46C280.811 60.1 282.191 59.04 283.951 58.28C285.711 57.48 287.631 57.08 289.711 57.08C291.311 57.08 292.851 57.42 294.331 58.1C295.851 58.74 297.211 59.54 298.411 60.5C298.571 60.78 298.851 61.3 299.251 62.06C299.651 62.78 299.931 63.44 300.091 64.04C300.291 64.64 300.391 65.26 300.391 65.9C300.391 68.58 299.411 70.38 297.451 71.3C295.491 72.18 293.011 72.62 290.011 72.62C287.011 72.62 284.571 72.42 282.691 72.02C282.771 72.78 282.971 73.54 283.291 74.3C283.611 75.06 283.991 75.64 284.431 76.04C285.231 76.8 286.011 77.3 286.771 77.54C287.571 77.74 288.631 77.84 289.951 77.84C291.951 77.84 293.511 77.46 294.631 76.7C295.671 76.02 296.471 75.68 297.031 75.68C297.791 75.68 298.371 75.92 298.771 76.4C299.171 76.84 299.371 77.42 299.371 78.14C299.371 79.66 298.391 80.9 296.431 81.86C294.511 82.82 292.331 83.3 289.891 83.3C287.971 83.3 286.071 82.96 284.191 82.28C282.311 81.6 280.811 80.64 279.691 79.4C278.931 78.12 278.251 76.56 277.651 74.72C277.051 72.88 276.751 71.12 276.751 69.44ZM289.951 62C289.071 62 288.151 62.16 287.191 62.48C286.271 62.76 285.551 63.2 285.031 63.8C284.391 64.48 283.911 65.1 283.591 65.66C283.311 66.22 283.131 66.92 283.051 67.76C283.491 67.76 283.911 67.78 284.311 67.82C284.711 67.86 285.091 67.9 285.451 67.94C287.211 68.1 288.531 68.18 289.411 68.18C291.171 68.18 292.511 67.92 293.431 67.4C294.391 66.88 294.871 66.18 294.871 65.3C294.871 64.46 294.331 63.7 293.251 63.02C292.211 62.34 291.111 62 289.951 62ZM324.836 64.82C324.236 64.82 323.716 64.68 323.276 64.4C322.876 64.08 322.456 63.66 322.016 63.14C321.576 62.62 321.096 62.28 320.576 62.12C320.096 61.96 319.536 61.88 318.896 61.88C317.736 61.88 316.596 62.24 315.476 62.96C314.396 63.64 313.496 64.6 312.776 65.84C312.096 67.08 311.756 68.46 311.756 69.98C311.756 71.66 312.076 73.06 312.716 74.18C313.396 75.3 314.456 76.28 315.896 77.12C316.416 77.4 317.016 77.62 317.696 77.78C318.416 77.94 319.036 78.02 319.556 78.02C320.796 78.02 322.396 77.48 324.356 76.4C324.516 76.32 324.816 76.18 325.256 75.98C325.736 75.74 326.096 75.62 326.336 75.62C326.776 75.62 327.276 75.84 327.836 76.28C328.396 76.68 328.676 77.18 328.676 77.78C328.676 78.98 328.156 80 327.116 80.84C326.116 81.68 324.856 82.3 323.336 82.7C321.816 83.1 320.316 83.3 318.836 83.3C316.476 83.3 314.276 82.76 312.236 81.68C310.196 80.6 308.576 79.1 307.376 77.18C306.176 75.26 305.576 73.1 305.576 70.7C305.576 68.1 306.156 65.76 307.316 63.68C308.476 61.56 310.036 59.9 311.996 58.7C313.996 57.46 316.156 56.84 318.476 56.84C320.716 56.84 322.776 57.28 324.656 58.16C326.576 59.04 327.536 60.38 327.536 62.18C327.536 63.94 326.636 64.82 324.836 64.82ZM340.741 44.96C340.741 46 340.721 47.22 340.681 48.62C340.641 49.98 340.601 51.02 340.561 51.74C340.441 53.78 340.381 55.82 340.381 57.86C340.381 60.54 340.441 62.7 340.561 64.34C341.481 62.06 342.781 60.34 344.461 59.18C346.141 57.98 348.061 57.38 350.221 57.38C351.701 57.38 353.081 58.04 354.361 59.36C355.641 60.68 356.461 62.22 356.821 63.98C356.861 64.18 356.881 64.48 356.881 64.88C356.881 65.36 356.841 66.12 356.761 67.16C356.641 68 356.581 68.84 356.581 69.68C356.581 71.84 356.661 73.52 356.821 74.72C356.981 75.88 357.321 76.84 357.841 77.6C358.361 78.32 359.181 78.9 360.301 79.34C360.741 79.5 361.041 79.72 361.201 80C361.401 80.24 361.501 80.62 361.501 81.14C361.501 81.86 361.121 82.4 360.361 82.76C359.641 83.12 358.941 83.3 358.261 83.3C356.861 83.3 355.601 82.92 354.481 82.16C353.361 81.4 352.521 80.4 351.961 79.16C351.561 78.32 351.301 77.32 351.181 76.16C351.061 75 351.001 73.64 351.001 72.08L351.061 66.86C351.061 64.02 350.141 62.6 348.301 62.6C346.981 62.6 345.701 63.68 344.461 65.84C343.221 68 342.221 70.54 341.461 73.46C340.701 76.38 340.321 78.78 340.321 80.66C340.321 81.54 340.041 82.2 339.481 82.64C338.961 83.04 338.421 83.24 337.861 83.24C336.981 83.24 336.181 82.98 335.461 82.46C334.741 81.9 334.381 81.28 334.381 80.6C334.661 77.6 334.801 72.58 334.801 65.54C334.801 64.26 334.701 59.52 334.501 51.32L334.321 45.8C334.321 44.92 334.721 44.16 335.521 43.52C336.321 42.84 337.221 42.5 338.221 42.5C339.101 42.5 339.741 42.7 340.141 43.1C340.541 43.5 340.741 44.12 340.741 44.96ZM411.231 70.88C411.231 73.12 410.371 75.26 408.651 77.3C406.971 79.3 404.831 80.88 402.231 82.04C401.111 82.4 399.691 82.7 397.971 82.94C396.251 83.14 394.511 83.26 392.751 83.3C389.311 83.3 386.111 82.82 383.151 81.86C382.631 81.74 382.031 81.4 381.351 80.84C380.671 80.28 380.351 79.54 380.391 78.62V76.58C380.391 74.34 380.331 72.18 380.211 70.1C380.131 67.38 380.091 65.3 380.091 63.86L380.031 57.08C380.031 54.68 380.111 52.26 380.271 49.82C380.311 48.58 380.771 47.54 381.651 46.7C382.571 45.82 383.711 45.28 385.071 45.08C385.591 45.04 386.531 45.02 387.891 45.02L393.651 45.08C396.411 45.08 398.871 45.44 401.031 46.16C403.191 46.88 405.051 48.04 406.611 49.64C407.131 50.24 407.551 51.04 407.871 52.04C408.191 53 408.351 53.94 408.351 54.86C408.231 58.1 406.371 60.74 402.771 62.78C405.651 63.14 407.771 64.04 409.131 65.48C410.531 66.92 411.231 68.72 411.231 70.88ZM388.551 61.34C388.951 61.3 389.591 61.28 390.471 61.28H393.171C394.371 61.28 395.211 61.24 395.691 61.16C399.771 60.24 401.811 58.62 401.811 56.3C401.811 55.7 401.711 55.06 401.511 54.38C401.351 53.7 401.131 53.22 400.851 52.94C399.811 51.94 398.831 51.3 397.911 51.02C396.991 50.7 395.631 50.54 393.831 50.54C390.351 50.54 387.851 50.72 386.331 51.08L386.391 61.4L388.551 61.34ZM391.311 78.26C395.471 78.26 398.731 77.74 401.091 76.7C403.491 75.66 404.691 73.62 404.691 70.58C404.691 69.38 403.811 68.4 402.051 67.64C400.291 66.84 398.371 66.44 396.291 66.44C393.731 66.44 391.931 66.5 390.891 66.62C390.011 66.7 389.411 66.74 389.091 66.74C388.491 66.74 388.071 66.72 387.831 66.68C387.631 66.68 387.391 66.68 387.111 66.68C386.871 66.64 386.611 66.64 386.331 66.68L386.391 68.66C386.431 69.14 386.491 70.46 386.571 72.62C386.691 74.74 386.711 76.24 386.631 77.12C387.551 77.52 388.351 77.82 389.031 78.02C389.711 78.18 390.471 78.26 391.311 78.26ZM423.521 73.7C423.521 75.22 423.741 76.4 424.181 77.24C424.661 78.04 425.261 78.44 425.981 78.44C426.381 78.44 426.761 78.42 427.121 78.38C427.481 78.3 427.841 78.26 428.201 78.26C428.601 78.26 428.941 78.46 429.221 78.86C429.541 79.26 429.701 79.7 429.701 80.18C429.701 81.14 429.241 81.9 428.321 82.46C427.441 82.98 426.241 83.24 424.721 83.24C423.641 83.24 422.541 82.92 421.421 82.28C420.341 81.6 419.441 80.56 418.721 79.16C418.001 77.72 417.641 75.94 417.641 73.82C417.641 69.26 417.721 65.4 417.881 62.24C418.081 58.48 418.181 53.74 418.181 48.02C418.181 46.22 418.281 44.96 418.481 44.24C418.721 43.68 419.101 43.26 419.621 42.98C420.181 42.66 420.761 42.5 421.361 42.5C421.961 42.5 422.481 42.6 422.921 42.8C423.401 43 423.721 43.32 423.881 43.76C424.041 44.24 424.141 44.72 424.181 45.2C424.261 45.64 424.301 46.28 424.301 47.12C424.301 48.76 424.241 50.34 424.121 51.86C424.041 53.7 424.001 55.04 424.001 55.88C423.681 62.92 423.521 68.86 423.521 73.7ZM457.553 63.74C457.873 64.3 458.133 65.12 458.333 66.2C458.533 67.24 458.633 68.18 458.633 69.02C458.633 70.58 458.293 72.8 457.613 75.68C454.853 80.72 450.773 83.24 445.373 83.24C443.373 83.24 441.333 82.58 439.253 81.26C437.173 79.94 435.733 78.42 434.933 76.7C433.853 73.26 433.313 71.08 433.313 70.16C433.313 68.56 433.653 66.86 434.333 65.06C435.053 63.26 435.953 61.7 437.033 60.38C437.713 59.46 438.933 58.68 440.693 58.04C442.453 57.36 444.053 57.02 445.493 57.02C448.293 57.02 450.673 57.56 452.633 58.64C454.593 59.68 456.233 61.38 457.553 63.74ZM452.333 73.4C452.533 72.88 452.633 71.54 452.633 69.38C452.633 68.22 452.413 67.08 451.973 65.96C451.573 64.84 450.973 63.88 450.173 63.08C450.093 63 449.873 62.88 449.513 62.72C449.153 62.52 448.653 62.34 448.013 62.18C447.413 61.98 446.713 61.88 445.913 61.88C443.673 61.88 442.033 62.78 440.993 64.58C439.953 66.38 439.433 68.42 439.433 70.7C439.433 71.1 439.533 71.86 439.733 72.98C439.973 74.1 440.173 74.8 440.333 75.08C440.453 75.36 440.753 75.76 441.233 76.28C441.753 76.76 442.373 77.2 443.093 77.6C443.853 77.96 444.633 78.14 445.433 78.14C447.233 78.14 448.673 77.72 449.753 76.88C450.833 76 451.693 74.84 452.333 73.4ZM487.536 67.94C487.536 69.78 487.076 71.34 486.156 72.62C485.236 73.86 484.016 74.96 482.496 75.92C480.416 77.04 477.996 77.62 475.236 77.66C475.076 78.14 474.996 78.64 474.996 79.16C474.996 79.64 475.256 80 475.776 80.24C476.336 80.44 477.316 80.6 478.716 80.72C479.876 80.8 481.176 81.06 482.616 81.5C484.096 81.9 485.256 82.36 486.096 82.88C487.136 83.64 487.856 84.46 488.256 85.34C488.696 86.22 488.916 87.32 488.916 88.64C488.916 90.36 488.116 91.8 486.516 92.96C484.956 94.16 483.116 95.04 480.996 95.6C478.876 96.16 477.016 96.44 475.416 96.44C473.496 96.44 471.856 96.2 470.496 95.72C469.176 95.28 467.916 94.66 466.716 93.86C465.876 93.26 465.216 92.5 464.736 91.58C464.256 90.66 464.016 89.7 464.016 88.7C464.016 87.7 464.336 86.74 464.976 85.82C465.656 84.9 466.476 84.1 467.436 83.42C468.396 82.78 469.296 82.34 470.136 82.1C469.816 81.7 469.576 81.36 469.416 81.08C469.296 80.76 469.236 80.4 469.236 80C469.236 78.64 469.576 77.5 470.256 76.58C468.336 75.94 466.816 74.8 465.696 73.16C464.616 71.52 464.076 69.6 464.076 67.4C464.076 65.96 464.416 64.66 465.096 63.5C465.776 62.3 466.716 61.16 467.916 60.08C469.956 58.24 472.776 57.32 476.376 57.32C476.856 57.32 477.516 57.4 478.356 57.56C479.196 57.72 480.016 57.94 480.816 58.22C482.096 57.66 483.596 57.08 485.316 56.48C487.036 55.88 488.196 55.58 488.796 55.58C489.716 55.58 490.396 55.74 490.836 56.06C491.316 56.34 491.556 56.98 491.556 57.98C491.556 58.9 491.016 59.56 489.936 59.96C488.896 60.36 487.316 60.74 485.196 61.1C486.756 62.98 487.536 65.26 487.536 67.94ZM475.056 72.74C477.376 72.74 479.056 72.26 480.096 71.3C481.176 70.34 481.716 68.9 481.716 66.98C481.716 63.82 479.856 62.24 476.136 62.24C474.696 62.24 473.556 62.4 472.716 62.72C471.916 63.04 471.256 63.58 470.736 64.34C470.016 65.3 469.656 66.6 469.656 68.24C469.656 69.52 470.176 70.6 471.216 71.48C472.296 72.32 473.576 72.74 475.056 72.74ZM469.656 89.12C469.656 89.8 470.276 90.38 471.516 90.86C472.796 91.38 474.156 91.64 475.596 91.64C477.196 91.64 478.836 91.34 480.516 90.74C482.236 90.18 483.096 89.42 483.096 88.46C483.096 87.06 481.856 86.16 479.376 85.76C478.496 85.6 477.216 85.3 475.536 84.86C475.336 84.82 475.096 84.76 474.816 84.68C474.576 84.6 474.316 84.52 474.036 84.44C473.156 84.76 472.196 85.42 471.156 86.42C470.156 87.46 469.656 88.36 469.656 89.12Z" fill="#FEFBF6"/>
</svg>
